<svg xmlns="http://www.w3.org/2000/svg" viewBox="490.189 1341.965 299.246 345.082">
  <defs>
    <style>
      .cls-1 {
        opacity: 0.02;
      }

      .cls-2 {
        fill: #383838;
        fill-rule: evenodd;
      }
    </style>
  </defs>
  <g id="bg-logo" class="cls-1" transform="translate(-18 -20)">
    <path id="Path_25" data-name="Path 25" class="cls-2" d="M-1950.845,1290.9l.069.056c37.179,71.526,84.922,122.9-24.314,204-45.486,33.773-80.32,59.65-82.219,61.059a34.886,34.886,0,0,1-6.075-5.764c-51.249-62.007-40.947-144.433,30.9-198.226Z" transform="translate(2715.121 151.031)"/>
    <path id="Path_26" data-name="Path 26" class="cls-2" d="M-2066.678,1552.638c-11.071-8.223-40.89-30.37-77.675-57.68-109.232-81.1-61.487-132.472-24.308-204l.071-.056,81.632,61.122a189.752,189.752,0,0,1,16.47,13.818C-2122.433,1422-2121.168,1497.413-2066.678,1552.638Z" transform="translate(2719.942 151.031)"/>
    <path id="Path_27" data-name="Path 27" class="cls-2" d="M-2091.928,1330.3a48.143,48.143,0,0,1,11.474-11.979l23.372-17.5s10.633,7.962,23.369,17.5a48.167,48.167,0,0,1,11.421,11.9l-18.36,13.744a191.309,191.309,0,0,0-16.516,13.862,190.312,190.312,0,0,0-16.513-13.862Z" transform="translate(2714.982 150.62)"/>
    <path id="Path_28" data-name="Path 28" class="cls-2" d="M-2104.961,1318.685l-51.819-38.8c4.887-3.848,10.636-8.328,14.706-11.35l82.221-61.06,82.225,61.06c4.07,3.022,9.819,7.5,14.708,11.35l-51.718,38.719a69.5,69.5,0,0,0-12.767-12.273c-17.636-13.2-32.364-24.226-32.364-24.226s-14.729,11.027-32.363,24.226A69.412,69.412,0,0,0-2104.961,1318.685Z" transform="translate(2717.666 154.488)"/>
  </g>
</svg>
