<svg xmlns="http://www.w3.org/2000/svg" xmlns:xlink="http://www.w3.org/1999/xlink" viewBox="602.502 1534.5 76.476 48.921">
  <defs>
    <style>
      .cls-1, .cls-2 {
        fill: #fff;
      }

      .cls-2 {
        fill-rule: evenodd;
      }

      .cls-3 {
        filter: url(#Path_12);
      }

      .cls-4 {
        filter: url(#Path_11);
      }

      .cls-5 {
        filter: url(#Path_10);
      }

      .cls-6 {
        filter: url(#Path_9);
      }

      .cls-7 {
        filter: url(#Path_8);
      }

      .cls-8 {
        filter: url(#Path_7);
      }

      .cls-9 {
        filter: url(#Path_6);
      }

      .cls-10 {
        filter: url(#Path_5);
      }

      .cls-11 {
        filter: url(#Path_4);
      }

      .cls-12 {
        filter: url(#Path_3);
      }

      .cls-13 {
        filter: url(#Path_2);
      }

      .cls-14 {
        filter: url(#Path_1);
      }
    </style>
    <filter id="Path_1" x="602.502" y="1566.396" width="5.812" height="16.731" filterUnits="userSpaceOnUse">
      <feOffset dy="1" input="SourceAlpha"/>
      <feGaussianBlur stdDeviation="0.5" result="blur"/>
      <feFlood flood-opacity="0.043"/>
      <feComposite operator="in" in2="blur"/>
      <feComposite in="SourceGraphic"/>
    </filter>
    <filter id="Path_2" x="607.188" y="1570.346" width="12.528" height="12.783" filterUnits="userSpaceOnUse">
      <feOffset dy="1" input="SourceAlpha"/>
      <feGaussianBlur stdDeviation="0.5" result="blur-2"/>
      <feFlood flood-opacity="0.043"/>
      <feComposite operator="in" in2="blur-2"/>
      <feComposite in="SourceGraphic"/>
    </filter>
    <filter id="Path_3" x="618.317" y="1566.479" width="13.446" height="16.863" filterUnits="userSpaceOnUse">
      <feOffset dy="1" input="SourceAlpha"/>
      <feGaussianBlur stdDeviation="0.5" result="blur-3"/>
      <feFlood flood-opacity="0.043"/>
      <feComposite operator="in" in2="blur-3"/>
      <feComposite in="SourceGraphic"/>
    </filter>
    <filter id="Path_4" x="630.619" y="1566.396" width="5.812" height="16.731" filterUnits="userSpaceOnUse">
      <feOffset dy="1" input="SourceAlpha"/>
      <feGaussianBlur stdDeviation="0.5" result="blur-4"/>
      <feFlood flood-opacity="0.043"/>
      <feComposite operator="in" in2="blur-4"/>
      <feComposite in="SourceGraphic"/>
    </filter>
    <filter id="Path_5" x="634.797" y="1570.229" width="11.825" height="13.192" filterUnits="userSpaceOnUse">
      <feOffset dy="1" input="SourceAlpha"/>
      <feGaussianBlur stdDeviation="0.5" result="blur-5"/>
      <feFlood flood-opacity="0.043"/>
      <feComposite operator="in" in2="blur-5"/>
      <feComposite in="SourceGraphic"/>
    </filter>
    <filter id="Path_6" x="644.463" y="1566.396" width="5.812" height="16.731" filterUnits="userSpaceOnUse">
      <feOffset dy="1" input="SourceAlpha"/>
      <feGaussianBlur stdDeviation="0.5" result="blur-6"/>
      <feFlood flood-opacity="0.043"/>
      <feComposite operator="in" in2="blur-6"/>
      <feComposite in="SourceGraphic"/>
    </filter>
    <filter id="Path_7" x="649.266" y="1570.502" width="12.528" height="12.782" filterUnits="userSpaceOnUse">
      <feOffset dy="1" input="SourceAlpha"/>
      <feGaussianBlur stdDeviation="0.5" result="blur-7"/>
      <feFlood flood-opacity="0.043"/>
      <feComposite operator="in" in2="blur-7"/>
      <feComposite in="SourceGraphic"/>
    </filter>
    <filter id="Path_8" x="660.903" y="1570.326" width="18.074" height="12.802" filterUnits="userSpaceOnUse">
      <feOffset dy="1" input="SourceAlpha"/>
      <feGaussianBlur stdDeviation="0.5" result="blur-8"/>
      <feFlood flood-opacity="0.043"/>
      <feComposite operator="in" in2="blur-8"/>
      <feComposite in="SourceGraphic"/>
    </filter>
    <filter id="Path_9" x="636.387" y="1540.486" width="17.05" height="22.845" filterUnits="userSpaceOnUse">
      <feOffset dy="1" input="SourceAlpha"/>
      <feGaussianBlur stdDeviation="0.5" result="blur-9"/>
      <feFlood flood-opacity="0.043"/>
      <feComposite operator="in" in2="blur-9"/>
      <feComposite in="SourceGraphic"/>
    </filter>
    <filter id="Path_10" x="628.038" y="1540.486" width="13.859" height="22.592" filterUnits="userSpaceOnUse">
      <feOffset dy="1" input="SourceAlpha"/>
      <feGaussianBlur stdDeviation="0.5" result="blur-10"/>
      <feFlood flood-opacity="0.043"/>
      <feComposite operator="in" in2="blur-10"/>
      <feComposite in="SourceGraphic"/>
    </filter>
    <filter id="Path_11" x="636.636" y="1541.197" width="8.213" height="7.267" filterUnits="userSpaceOnUse">
      <feOffset dy="1" input="SourceAlpha"/>
      <feGaussianBlur stdDeviation="0.5" result="blur-11"/>
      <feFlood flood-opacity="0.043"/>
      <feComposite operator="in" in2="blur-11"/>
      <feComposite in="SourceGraphic"/>
    </filter>
    <filter id="Path_12" x="631.982" y="1534.5" width="17.511" height="11.324" filterUnits="userSpaceOnUse">
      <feOffset dy="1" input="SourceAlpha"/>
      <feGaussianBlur stdDeviation="0.5" result="blur-12"/>
      <feFlood flood-opacity="0.043"/>
      <feComposite operator="in" in2="blur-12"/>
      <feComposite in="SourceGraphic"/>
    </filter>
  </defs>
  <g id="footer-logo" transform="translate(-3488 1535)">
    <g class="cls-14" transform="matrix(1, 0, 0, 1, 3488, -1535)">
      <path id="Path_1-2" data-name="Path 1" class="cls-1" d="M9663.821,12949.959v9.664h-2.382v-9.664Zm-2.6-2.676a1.406,1.406,0,0,1,2.812,0A1.406,1.406,0,0,1,9661.225,12947.283Z" transform="translate(-9057.22 -11379)"/>
    </g>
    <g class="cls-13" transform="matrix(1, 0, 0, 1, 3488, -1535)">
      <path id="Path_2-2" data-name="Path 2" class="cls-1" d="M9736.063,13010.711v-5.057c0-3.027-1.815-4.727-4.081-4.727a4.342,4.342,0,0,0-3.163,1.445l-.156-1.308h-2.128v9.646h2.362v-4.921a2.533,2.533,0,0,1,2.461-2.694,2.3,2.3,0,0,1,2.323,2.578v5.037Z" transform="translate(-9117.85 -11430.08)"/>
    </g>
    <g class="cls-12" transform="matrix(1, 0, 0, 1, 3488, -1535)">
      <path id="Path_3-2" data-name="Path 3" class="cls-1" d="M9886.76,12953.063a2.822,2.822,0,0,1,0,5.644,2.706,2.706,0,0,1-2.734-2.831A2.656,2.656,0,0,1,9886.76,12953.063Zm2.947-6.014v5.33a3.985,3.985,0,0,0-3.162-1.542c-2.812,0-4.9,1.718-4.9,5.038a4.724,4.724,0,0,0,4.96,5.037,3.5,3.5,0,0,0,3.1-1.543l.156,1.328h2.227v-13.648Z" transform="translate(-9261.83 -11380.07)"/>
    </g>
    <g class="cls-11" transform="matrix(1, 0, 0, 1, 3488, -1535)">
      <path id="Path_4-2" data-name="Path 4" class="cls-1" d="M10055.679,12949.959v9.664h-2.382v-9.664Zm-2.6-2.676a1.406,1.406,0,0,1,2.812,0A1.406,1.406,0,0,1,10053.082,12947.283Z" transform="translate(-9420.96 -11379)"/>
    </g>
    <g class="cls-10" transform="matrix(1, 0, 0, 1, 3488, -1535)">
      <path id="Path_5-2" data-name="Path 5" class="cls-1" d="M10118.542,13006.4a2.894,2.894,0,0,1-2.108.8,2.623,2.623,0,0,1-2.734-2.812,2.709,2.709,0,0,1,2.773-2.852,2.922,2.922,0,0,1,1.933.762l1.5-1.581a4.572,4.572,0,0,0-3.476-1.426,5.1,5.1,0,1,0,0,10.192,4.953,4.953,0,0,0,3.709-1.522Z" transform="translate(-9475.02 -11428.57)"/>
    </g>
    <g class="cls-9" transform="matrix(1, 0, 0, 1, 3488, -1535)">
      <path id="Path_6-2" data-name="Path 6" class="cls-1" d="M10248.615,12949.959v9.664h-2.382v-9.664Zm-2.6-2.676a1.406,1.406,0,0,1,2.812,0A1.406,1.406,0,0,1,10246.019,12947.283Z" transform="translate(-9600.06 -11379)"/>
    </g>
    <g class="cls-8" transform="matrix(1, 0, 0, 1, 3488, -1535)">
      <path id="Path_7-2" data-name="Path 7" class="cls-1" d="M10312.96,13003.105v5.057c0,2.988,1.68,4.726,3.983,4.726a4.287,4.287,0,0,0,3.261-1.444l.156,1.309h2.128v-9.646h-2.362v4.92a2.533,2.533,0,0,1-2.46,2.7,2.3,2.3,0,0,1-2.323-2.578v-5.037Z" transform="translate(-9662.19 -11432.1)"/>
    </g>
    <g class="cls-7" transform="matrix(1, 0, 0, 1, 3488, -1535)">
      <path id="Path_8-2" data-name="Path 8" class="cls-1" d="M10483.932,13010.457v-5.154a2.192,2.192,0,0,1,2.09-2.383c1.289,0,1.816,1.074,1.816,2.344v5.193h2.382v-5.193c0-2.891-1.348-4.569-4.081-4.569a3.486,3.486,0,0,0-3.222,1.757,2.884,2.884,0,0,0-2.851-1.8,2.786,2.786,0,0,0-2.538,1.327l-.176-1.171h-2.207v9.646h2.383v-5.154a2.2,2.2,0,0,1,2.05-2.422c1.309,0,1.972,1.152,1.972,2.422v5.154Z" transform="translate(-9812.74 -11429.83)"/>
    </g>
    <g class="cls-6" transform="matrix(1, 0, 0, 1, 3488, -1535)">
      <path id="Path_9-2" data-name="Path 9" class="cls-2" d="M-2084.567,1290.9l.005,0c2.783,5.354,6.357,9.2-1.82,15.27l-6.155,4.571a2.607,2.607,0,0,1-.455-.432c-3.836-4.641-3.065-10.811,2.313-14.838Z" transform="translate(2733.27 250.08)"/>
    </g>
    <g class="cls-5" transform="matrix(1, 0, 0, 1, 3488, -1535)">
      <path id="Path_10-2" data-name="Path 10" class="cls-2" d="M-2200.895,1310.5l-5.814-4.318c-8.177-6.071-4.6-9.916-1.82-15.27l.005,0,6.111,4.575a14.21,14.21,0,0,1,1.233,1.034C-2205.068,1300.717-2204.973,1306.362-2200.895,1310.5Z" transform="translate(2841.29 250.08)"/>
    </g>
    <g class="cls-4" transform="matrix(1, 0, 0, 1, 3488, -1535)">
      <path id="Path_11-2" data-name="Path 11" class="cls-2" d="M-2091.929,1303.026a3.607,3.607,0,0,1,.859-.9l1.75-1.31,1.749,1.31a3.6,3.6,0,0,1,.855.891l-1.374,1.029a14.281,14.281,0,0,0-1.236,1.038,14.277,14.277,0,0,0-1.236-1.038Z" transform="translate(2730.06 240.88)"/>
    </g>
    <g class="cls-3" transform="matrix(1, 0, 0, 1, 3488, -1535)">
      <path id="Path_12-2" data-name="Path 12" class="cls-2" d="M-2152.9,1215.8l-3.879-2.9c.366-.288.8-.623,1.1-.85l6.155-4.571,6.155,4.571c.3.226.735.562,1.1.85l-3.871,2.9a5.2,5.2,0,0,0-.956-.919l-2.423-1.813-2.423,1.813A5.193,5.193,0,0,0-2152.9,1215.8Z" transform="translate(2790.26 327.52)"/>
    </g>
  </g>
</svg>
