<svg xmlns="http://www.w3.org/2000/svg" viewBox="534 295 212.365 132.725">
  <defs>
    <style>
      .cls-1 {
        fill: none;
      }

      .cls-2, .cls-5 {
        fill: #667f86;
      }

      .cls-3 {
        fill: #a4edff;
      }

      .cls-3, .cls-4, .cls-5, .cls-6 {
        fill-rule: evenodd;
      }

      .cls-4 {
        fill: #51ddff;
      }

      .cls-6 {
        fill: #2baece;
      }
    </style>
  </defs>
  <g id="logo" transform="translate(-3558 295)">
    <rect id="Rectangle_4" data-name="Rectangle 4" class="cls-1" width="212.359" height="132.725" transform="translate(4092)"/>
    <g id="Writing" transform="translate(4092.005 92.188)">
      <path id="Path_1" data-name="Path 1" class="cls-2" d="M9668.73,12957.645v27.935h-6.885v-27.935Zm-7.506-7.731c0-5.361,8.127-5.361,8.127,0S9661.225,12955.274,9661.225,12949.913Z" transform="translate(-9661.225 -12945.893)"/>
      <path id="Path_2" data-name="Path 2" class="cls-2" d="M9754.074,13029.2v-14.616c0-8.747-5.248-13.657-11.795-13.657-3.5,0-6.32,1.411-9.143,4.176l-.451-3.78h-6.151v27.878h6.829v-14.222c0-4.232,2.878-7.787,7.11-7.787,4.4,0,6.716,3.216,6.716,7.449v14.56Z" transform="translate(-9712.99 -12989.515)"/>
      <path id="Path_3" data-name="Path 3" class="cls-2" d="M9896.43,12964.431a8.155,8.155,0,0,1,0,16.31,7.819,7.819,0,0,1-7.9-8.184C9888.529,12967.534,9892.027,12964.431,9896.43,12964.431Zm8.521-17.382v15.406c-1.637-2.878-6.208-4.458-9.143-4.458-8.127,0-14.165,4.966-14.165,14.56,0,9.143,6.151,14.56,14.335,14.56,3.386,0,6.828-1.128,8.973-4.458l.451,3.838h6.434v-39.447Z" transform="translate(-9835.933 -12946.809)"/>
      <path id="Path_4" data-name="Path 4" class="cls-2" d="M10060.588,12957.645v27.935h-6.885v-27.935Zm-7.506-7.731c0-5.361,8.127-5.361,8.127,0S10053.082,12955.274,10053.082,12949.913Z" transform="translate(-9971.817 -12945.893)"/>
      <path id="Path_5" data-name="Path 5" class="cls-2" d="M10132.2,13019.838a8.362,8.362,0,0,1-6.095,2.314c-4.288,0-7.9-2.822-7.9-8.127,0-4.854,3.386-8.239,8.014-8.239a8.452,8.452,0,0,1,5.587,2.2l4.346-4.57a13.215,13.215,0,0,0-10.046-4.12c-8.069,0-14.785,4.854-14.785,14.729s6.716,14.729,14.785,14.729a14.315,14.315,0,0,0,10.723-4.4Z" transform="translate(-10017.977 -12988.221)"/>
      <path id="Path_6" data-name="Path 6" class="cls-2" d="M10253.524,12957.645v27.935h-6.886v-27.935Zm-7.506-7.731c0-5.361,8.126-5.361,8.126,0S10246.019,12955.274,10246.019,12949.913Z" transform="translate(-10124.743 -12945.893)"/>
      <path id="Path_7" data-name="Path 7" class="cls-2" d="M10312.96,13003.105v14.616c0,8.635,4.854,13.657,11.513,13.657,3.895,0,6.547-1.354,9.424-4.176l.452,3.781h6.151v-27.879h-6.828v14.222c0,4.232-2.879,7.788-7.111,7.788-4.4,0-6.715-3.217-6.715-7.449v-14.561Z" transform="translate(-10177.802 -12991.24)"/>
      <path id="Path_8" data-name="Path 8" class="cls-2" d="M10500.541,13028.985v-14.9c0-3.667,2.314-6.884,6.038-6.884s5.249,3.1,5.249,6.771v15.012h6.885v-15.012c0-8.352-3.895-13.205-11.795-13.205a10.076,10.076,0,0,0-9.312,5.079c-1.58-3.838-4.909-5.192-8.239-5.192-2.652,0-5.869,1.016-7.336,3.838l-.508-3.386h-6.378v27.878h6.886v-14.9c0-3.667,2.2-7,5.925-7,3.781,0,5.7,3.33,5.7,7v14.9Z" transform="translate(-10306.353 -12989.298)"/>
    </g>
    <g id="Flower" transform="translate(4165.81 -0.001)">
      <path id="Path_9" data-name="Path 9" class="cls-3" d="M-2064.116,1290.9l.015.013c8.043,15.474,18.372,26.588-5.26,44.134l-17.788,13.21a7.537,7.537,0,0,1-1.314-1.247c-11.088-13.415-8.86-31.248,6.685-42.886Z" transform="translate(2119.52 -1273.603)"/>
      <path id="Path_10" data-name="Path 10" class="cls-4" d="M-2180.368,1347.529l-16.8-12.479c-23.632-17.546-13.3-28.66-5.259-44.134l.015-.013,17.662,13.223a41.083,41.083,0,0,1,3.563,2.99C-2192.43,1319.267-2192.156,1335.581-2180.368,1347.529Z" transform="translate(2211.754 -1273.603)"/>
      <path id="Path_11" data-name="Path 11" class="cls-5" d="M-2091.929,1307.2a10.415,10.415,0,0,1,2.483-2.592l5.056-3.785,5.056,3.785a10.413,10.413,0,0,1,2.471,2.573l-3.972,2.974a41.242,41.242,0,0,0-3.573,3,41.23,41.23,0,0,0-3.573-3Z" transform="translate(2116.778 -1281.463)"/>
      <path id="Path_12" data-name="Path 12" class="cls-6" d="M-2145.569,1231.537l-11.211-8.394c1.057-.833,2.3-1.8,3.181-2.456l17.788-13.21,17.789,13.21c.88.654,2.125,1.623,3.182,2.456l-11.189,8.377a15.008,15.008,0,0,0-2.761-2.655l-7-5.241-7,5.241A15,15,0,0,0-2145.569,1231.537Z" transform="translate(2168.181 -1207.477)"/>
    </g>
  </g>
</svg>
